<svg width="280" height="270" viewBox="0 0 280 270" fill="none" xmlns="http://www.w3.org/2000/svg">
<path d="M68.1635 158.418C67.8573 158.088 67.57 157.746 67.2988 157.386C65.9896 155.622 65.1465 152.124 63.6153 150.058C53.2613 136.085 46.4575 120.422 48.9739 102.684C49.9657 95.7013 53.3186 91.1479 59.3199 87.0903C93.4624 64.0044 138.478 57.034 178.779 63.0937C210.008 68.316 234.26 81.6727 252.565 107.453C258.941 117.988 268.663 139.166 266.121 151.625C247.268 143.601 229.915 138.186 209.249 136.325C184.674 134.113 136.724 135.016 135.974 169.374C135.902 172.653 135.916 177.481 134.945 180.454C126.611 191.037 77.5512 164.757 68.1635 158.418Z" fill="#002BD9"/>
<path d="M143.449 181.491C143.371 181.187 143.301 180.881 143.239 180.573C138.972 159.358 150.556 146.248 170.82 142.23C179.156 152.136 187.089 153.64 199.137 151.693C213.349 160.504 223.055 161.3 239.306 160.013C242.388 159.864 248.891 158.704 252.438 158.282C252.263 158.668 252.08 159.05 251.889 159.428C236.231 190.568 170.934 195.423 143.449 181.491Z" fill="#002BD9"/>
<path d="M32.8743 170.694C23.7559 155.355 18.073 134.902 20.274 116.968C20.8016 112.678 22.1913 107.794 25.8399 105.15C30.6668 101.658 36.6642 101.457 42.2981 102.296C42.0096 123.551 43.9363 135.972 57.9321 152.865C60.7184 156.228 55.683 162.923 53.3435 165.468C48.7552 167.326 39.1557 168.549 32.8743 170.694Z" fill="#002BD9"/>
</svg>
